STARTFONT 2.1
FONT -Adobe-ITC Lubalin Graph-Demi-R-Normal--10-100-75-75-P-61-ISO8859-1
SIZE 10 75 75
FONTBOUNDINGBOX 14 13 -1 -2

STARTPROPERTIES 30
FOUNDRY "Adobe"
FAMILY_NAME "ITC Lubalin Graph"
WEIGHT_NAME "Demi"
SLANT "R"
SETWIDTH_NAME "Normal"
ADD_STYLE_NAME ""
PIXEL_SIZE 10
POINT_SIZE 100
RESOLUTION_X 75
RESOLUTION_Y 75
SPACING "P"
AVERAGE_WIDTH 61
CHARSET_REGISTRY "ISO8859"
CHARSET_ENCODING "1"
CAP_HEIGHT 8
X_HEIGHT 6
FACE_NAME "ITC Lubalin Graph Demi"
COPYRIGHT "Copyright (c) 1984, 1987 Adobe Systems Incorporated. All Rights Reserved. Copyright (c) 1988, 1991 Digital Equipment Corporation. All Rights Reserved."
NOTICE "ITC Lubalin Graph is a registered trademark of International Typeface Corporation."
_DEC_DEVICE_FONTNAMES "PS=LubalinGraph-Demi"
_DEC_PRODUCTINFO "DECwindows Fonts V2.2, 07-Nov-1991"
RELATIVE_SETWIDTH 50
RELATIVE_WEIGHT 60
CHARSET_COLLECTIONS "ASCII ISO8859-1 ADOBE-STANDARD"
FULL_NAME "ITC Lubalin Graph Demi"
WEIGHT 10
QUAD_WIDTH 6
DEFAULT_CHAR 32
FONT_DESCENT 2
FONT_ASCENT 10
ENDPROPERTIES

CHARS 191

STARTCHAR space
ENCODING 32
SWIDTH 300 0
DWIDTH 2 0
BBX 1 1 0 0
BITMAP
00
ENDCHAR

STARTCHAR exclam
ENCODING 33
SWIDTH 200 0
DWIDTH 3 0
BBX 1 8 1 0
BITMAP
80
80
80
80
80
00
80
80
ENDCHAR

STARTCHAR quotedbl
ENCODING 34
SWIDTH 400 0
DWIDTH 4 0
BBX 3 3 1 5
BITMAP
A0
A0
A0
ENDCHAR

STARTCHAR numbersign
ENCODING 35
SWIDTH 660 0
DWIDTH 7 0
BBX 7 8 0 0
BITMAP
14
14
7E
28
28
FC
50
50
ENDCHAR

STARTCHAR dollar
ENCODING 36
SWIDTH 580 0
DWIDTH 6 0
BBX 5 10 0 -1
BITMAP
20
78
D8
C0
60
30
18
D8
F0
20
ENDCHAR

STARTCHAR percent
ENCODING 37
SWIDTH 860 0
DWIDTH 11 0
BBX 10 8 0 0
BITMAP
6200
9200
9400
6400
0980
0A40
1240
1180
ENDCHAR

STARTCHAR ampersand
ENCODING 38
SWIDTH 720 0
DWIDTH 8 0
BBX 8 8 0 0
BITMAP
38
6C
68
33
6E
CC
CE
73
ENDCHAR

STARTCHAR quoteright
ENCODING 39
SWIDTH 200 0
DWIDTH 3 0
BBX 2 3 0 5
BITMAP
C0
40
80
ENDCHAR

STARTCHAR parenleft
ENCODING 40
SWIDTH 360 0
DWIDTH 4 0
BBX 3 9 0 -1
BITMAP
20
60
C0
C0
C0
C0
C0
60
20
ENDCHAR

STARTCHAR parenright
ENCODING 41
SWIDTH 360 0
DWIDTH 4 0
BBX 3 9 1 -1
BITMAP
80
C0
60
60
60
60
60
C0
80
ENDCHAR

STARTCHAR asterisk
ENCODING 42
SWIDTH 360 0
DWIDTH 5 0
BBX 3 3 1 5
BITMAP
A0
40
A0
ENDCHAR

STARTCHAR plus
ENCODING 43
SWIDTH 660 0
DWIDTH 7 0
BBX 5 5 1 1
BITMAP
20
20
F8
20
20
ENDCHAR

STARTCHAR comma
ENCODING 44
SWIDTH 300 0
DWIDTH 4 0
BBX 2 3 1 -1
BITMAP
40
40
80
ENDCHAR

STARTCHAR minus
ENCODING 45
SWIDTH 660 0
DWIDTH 7 0
BBX 5 1 1 3
BITMAP
F8
ENDCHAR

STARTCHAR period
ENCODING 46
SWIDTH 300 0
DWIDTH 3 0
BBX 1 2 1 0
BITMAP
80
80
ENDCHAR

STARTCHAR slash
ENCODING 47
SWIDTH 580 0
DWIDTH 6 0
BBX 5 9 0 -1
BITMAP
08
18
10
30
20
60
40
C0
80
ENDCHAR

STARTCHAR zero
ENCODING 48
SWIDTH 580 0
DWIDTH 6 0
BBX 5 8 0 0
BITMAP
70
D8
D8
D8
D8
D8
D8
70
ENDCHAR

STARTCHAR one
ENCODING 49
SWIDTH 580 0
DWIDTH 6 0
BBX 4 8 1 0
BITMAP
E0
60
60
60
60
60
60
F0
ENDCHAR

STARTCHAR two
ENCODING 50
SWIDTH 580 0
DWIDTH 6 0
BBX 5 8 0 0
BITMAP
70
D8
D8
18
30
60
C8
F8
ENDCHAR

STARTCHAR three
ENCODING 51
SWIDTH 580 0
DWIDTH 6 0
BBX 5 8 0 0
BITMAP
70
D8
D8
30
38
D8
D8
70
ENDCHAR

STARTCHAR four
ENCODING 52
SWIDTH 580 0
DWIDTH 6 0
BBX 5 8 0 0
BITMAP
30
70
70
B0
B0
F8
30
78
ENDCHAR

STARTCHAR five
ENCODING 53
SWIDTH 580 0
DWIDTH 6 0
BBX 5 8 0 0
BITMAP
F0
F0
80
F0
D8
18
D8
F0
ENDCHAR

STARTCHAR six
ENCODING 54
SWIDTH 580 0
DWIDTH 6 0
BBX 5 8 0 0
BITMAP
10
30
60
F0
D8
D8
D8
70
ENDCHAR

STARTCHAR seven
ENCODING 55
SWIDTH 580 0
DWIDTH 6 0
BBX 5 8 0 0
BITMAP
F8
98
98
30
30
60
60
60
ENDCHAR

STARTCHAR eight
ENCODING 56
SWIDTH 580 0
DWIDTH 6 0
BBX 5 8 0 0
BITMAP
70
D8
D8
70
D8
D8
D8
70
ENDCHAR

STARTCHAR nine
ENCODING 57
SWIDTH 580 0
DWIDTH 6 0
BBX 5 8 0 0
BITMAP
70
D8
D8
D8
78
30
60
40
ENDCHAR

STARTCHAR colon
ENCODING 58
SWIDTH 300 0
DWIDTH 3 0
BBX 1 6 1 0
BITMAP
80
80
00
00
80
80
ENDCHAR

STARTCHAR semicolon
ENCODING 59
SWIDTH 300 0
DWIDTH 3 0
BBX 2 7 0 -1
BITMAP
40
40
00
00
40
40
80
ENDCHAR

STARTCHAR less
ENCODING 60
SWIDTH 660 0
DWIDTH 7 0
BBX 6 7 0 0
BITMAP
04
18
60
80
60
18
04
ENDCHAR

STARTCHAR equal
ENCODING 61
SWIDTH 660 0
DWIDTH 7 0
BBX 5 3 1 2
BITMAP
F8
00
F8
ENDCHAR

STARTCHAR greater
ENCODING 62
SWIDTH 660 0
DWIDTH 7 0
BBX 6 7 0 0
BITMAP
80
60
18
04
18
60
80
ENDCHAR

STARTCHAR question
ENCODING 63
SWIDTH 540 0
DWIDTH 6 0
BBX 5 8 0 0
BITMAP
70
98
98
30
20
00
20
20
ENDCHAR

STARTCHAR at
ENCODING 64
SWIDTH 880 0
DWIDTH 9 0
BBX 8 8 0 0
BITMAP
3C
42
9D
A5
A5
9A
40
3E
ENDCHAR

STARTCHAR A
ENCODING 65
SWIDTH 780 0
DWIDTH 7 0
BBX 7 8 0 0
BITMAP
78
38
28
6C
6C
7C
C6
C6
ENDCHAR

STARTCHAR B
ENCODING 66
SWIDTH 600 0
DWIDTH 7 0
BBX 6 8 0 0
BITMAP
F8
6C
6C
78
6C
6C
6C
F8
ENDCHAR

STARTCHAR C
ENCODING 67
SWIDTH 760 0
DWIDTH 8 0
BBX 7 8 0 0
BITMAP
3E
66
C0
C0
C0
C2
66
3C
ENDCHAR

STARTCHAR D
ENCODING 68
SWIDTH 740 0
DWIDTH 8 0
BBX 7 8 0 0
BITMAP
F8
6C
66
66
66
66
6C
F8
ENDCHAR

STARTCHAR E
ENCODING 69
SWIDTH 580 0
DWIDTH 7 0
BBX 6 8 0 0
BITMAP
FC
64
60
78
60
64
64
FC
ENDCHAR

STARTCHAR F
ENCODING 70
SWIDTH 580 0
DWIDTH 6 0
BBX 6 8 0 0
BITMAP
FC
64
60
78
60
60
60
F0
ENDCHAR

STARTCHAR G
ENCODING 71
SWIDTH 780 0
DWIDTH 8 0
BBX 7 8 0 0
BITMAP
3E
66
C0
C0
CE
C6
66
3A
ENDCHAR

STARTCHAR H
ENCODING 72
SWIDTH 740 0
DWIDTH 8 0
BBX 8 8 0 0
BITMAP
E7
66
66
7E
66
66
66
E7
ENDCHAR

STARTCHAR I
ENCODING 73
SWIDTH 340 0
DWIDTH 4 0
BBX 4 8 0 0
BITMAP
F0
60
60
60
60
60
60
F0
ENDCHAR

STARTCHAR J
ENCODING 74
SWIDTH 540 0
DWIDTH 6 0
BBX 6 8 0 0
BITMAP
3C
18
18
18
18
D8
D8
70
ENDCHAR

STARTCHAR K
ENCODING 75
SWIDTH 720 0
DWIDTH 7 0
BBX 7 8 0 0
BITMAP
E6
66
6C
78
6C
6C
66
E6
ENDCHAR

STARTCHAR L
ENCODING 76
SWIDTH 560 0
DWIDTH 6 0
BBX 6 8 0 0
BITMAP
F0
60
60
60
60
64
64
FC
ENDCHAR

STARTCHAR M
ENCODING 77
SWIDTH 960 0
DWIDTH 10 0
BBX 10 8 0 0
BITMAP
E1C0
7380
7380
6D80
6D80
6D80
6D80
EDC0
ENDCHAR

STARTCHAR N
ENCODING 78
SWIDTH 800 0
DWIDTH 8 0
BBX 8 8 0 0
BITMAP
E7
66
76
76
6E
6E
66
E6
ENDCHAR

STARTCHAR O
ENCODING 79
SWIDTH 780 0
DWIDTH 9 0
BBX 8 8 0 0
BITMAP
3C
66
C3
C3
C3
C3
66
3C
ENDCHAR

STARTCHAR P
ENCODING 80
SWIDTH 600 0
DWIDTH 7 0
BBX 6 8 0 0
BITMAP
F8
6C
6C
6C
78
60
60
F0
ENDCHAR

STARTCHAR Q
ENCODING 81
SWIDTH 860 0
DWIDTH 9 0
BBX 9 8 0 0
BITMAP
3C00
6600
C300
C300
FB00
CF00
6680
3F80
ENDCHAR

STARTCHAR R
ENCODING 82
SWIDTH 640 0
DWIDTH 7 0
BBX 7 8 0 0
BITMAP
F8
6C
6C
6C
78
68
6C
EE
ENDCHAR

STARTCHAR S
ENCODING 83
SWIDTH 520 0
DWIDTH 6 0
BBX 5 8 0 0
BITMAP
78
D8
C0
70
38
18
D8
F0
ENDCHAR

STARTCHAR T
ENCODING 84
SWIDTH 600 0
DWIDTH 6 0
BBX 6 8 0 0
BITMAP
FC
B4
B4
30
30
30
30
78
ENDCHAR

STARTCHAR U
ENCODING 85
SWIDTH 700 0
DWIDTH 7 0
BBX 8 8 -1 0
BITMAP
EF
66
66
66
66
66
66
3C
ENDCHAR

STARTCHAR V
ENCODING 86
SWIDTH 740 0
DWIDTH 6 0
BBX 8 8 -1 0
BITMAP
E7
66
66
34
34
3C
18
18
ENDCHAR

STARTCHAR W
ENCODING 87
SWIDTH 1020 0
DWIDTH 9 0
BBX 10 8 -1 0
BITMAP
EDC0
4C80
6D80
6D80
2D00
3F00
3300
3300
ENDCHAR

STARTCHAR X
ENCODING 88
SWIDTH 740 0
DWIDTH 7 0
BBX 7 8 0 0
BITMAP
EE
6C
38
10
38
38
6C
EE
ENDCHAR

STARTCHAR Y
ENCODING 89
SWIDTH 680 0
DWIDTH 6 0
BBX 8 8 -1 0
BITMAP
E7
66
34
3C
18
18
18
3C
ENDCHAR

STARTCHAR Z
ENCODING 90
SWIDTH 560 0
DWIDTH 6 0
BBX 5 8 0 0
BITMAP
F8
98
B0
30
60
68
C8
F8
ENDCHAR

STARTCHAR bracketleft
ENCODING 91
SWIDTH 380 0
DWIDTH 5 0
BBX 3 9 1 -1
BITMAP
E0
C0
C0
C0
C0
C0
C0
C0
E0
ENDCHAR

STARTCHAR backslash
ENCODING 92
SWIDTH 620 0
DWIDTH 6 0
BBX 5 8 1 0
BITMAP
80
C0
40
60
20
30
10
18
ENDCHAR

STARTCHAR bracketright
ENCODING 93
SWIDTH 380 0
DWIDTH 5 0
BBX 3 9 1 -1
BITMAP
E0
60
60
60
60
60
60
60
E0
ENDCHAR

STARTCHAR asciicircum
ENCODING 94
SWIDTH 660 0
DWIDTH 7 0
BBX 7 6 0 2
BITMAP
10
28
28
44
44
82
ENDCHAR

STARTCHAR underscore
ENCODING 95
SWIDTH 500 0
DWIDTH 6 0
BBX 6 1 0 -2
BITMAP
FC
ENDCHAR

STARTCHAR quoteleft
ENCODING 96
SWIDTH 200 0
DWIDTH 3 0
BBX 2 3 0 5
BITMAP
40
80
C0
ENDCHAR

STARTCHAR a
ENCODING 97
SWIDTH 660 0
DWIDTH 6 0
BBX 6 6 0 0
BITMAP
78
D8
D8
D8
D8
6C
ENDCHAR

STARTCHAR b
ENCODING 98
SWIDTH 660 0
DWIDTH 6 0
BBX 6 8 -1 0
BITMAP
E0
60
78
6C
6C
6C
6C
58
ENDCHAR

STARTCHAR c
ENCODING 99
SWIDTH 580 0
DWIDTH 6 0
BBX 5 6 0 0
BITMAP
78
D8
C0
C0
D8
70
ENDCHAR

STARTCHAR d
ENCODING 100
SWIDTH 660 0
DWIDTH 6 0
BBX 6 8 0 0
BITMAP
38
18
78
D8
D8
D8
D8
6C
ENDCHAR

STARTCHAR e
ENCODING 101
SWIDTH 580 0
DWIDTH 6 0
BBX 5 6 0 0
BITMAP
70
D8
F8
C0
D8
70
ENDCHAR

STARTCHAR f
ENCODING 102
SWIDTH 320 0
DWIDTH 5 0
BBX 4 8 0 0
BITMAP
30
60
F0
60
60
60
60
F0
ENDCHAR

STARTCHAR g
ENCODING 103
SWIDTH 660 0
DWIDTH 6 0
BBX 6 8 0 -2
BITMAP
7C
D8
D8
D8
78
18
D8
70
ENDCHAR

STARTCHAR h
ENCODING 104
SWIDTH 640 0
DWIDTH 6 0
BBX 7 8 -1 0
BITMAP
E0
60
78
6C
6C
6C
6C
EE
ENDCHAR

STARTCHAR i
ENCODING 105
SWIDTH 300 0
DWIDTH 5 0
BBX 4 8 0 0
BITMAP
60
00
E0
60
60
60
60
F0
ENDCHAR

STARTCHAR j
ENCODING 106
SWIDTH 280 0
DWIDTH 3 0
BBX 3 10 -1 -2
BITMAP
60
00
E0
60
60
60
60
60
60
C0
ENDCHAR

STARTCHAR k
ENCODING 107
SWIDTH 600 0
DWIDTH 6 0
BBX 6 8 -1 0
BITMAP
E0
60
6C
6C
70
78
6C
6C
ENDCHAR

STARTCHAR l
ENCODING 108
SWIDTH 300 0
DWIDTH 4 0
BBX 4 8 -1 0
BITMAP
E0
60
60
60
60
60
60
F0
ENDCHAR

STARTCHAR m
ENCODING 109
SWIDTH 980 0
DWIDTH 9 0
BBX 10 6 -1 0
BITMAP
DB00
7F80
6D80
6D80
6D80
EDC0
ENDCHAR

STARTCHAR n
ENCODING 110
SWIDTH 640 0
DWIDTH 6 0
BBX 7 6 -1 0
BITMAP
D8
7C
6C
6C
6C
6E
ENDCHAR

STARTCHAR o
ENCODING 111
SWIDTH 580 0
DWIDTH 6 0
BBX 5 6 0 0
BITMAP
70
D8
D8
D8
D8
70
ENDCHAR

STARTCHAR p
ENCODING 112
SWIDTH 660 0
DWIDTH 6 0
BBX 6 8 -1 -2
BITMAP
F8
6C
6C
6C
6C
78
60
F0
ENDCHAR

STARTCHAR q
ENCODING 113
SWIDTH 660 0
DWIDTH 6 0
BBX 6 8 0 -2
BITMAP
7C
D8
D8
D8
D8
78
18
3C
ENDCHAR

STARTCHAR r
ENCODING 114
SWIDTH 380 0
DWIDTH 4 0
BBX 5 6 -1 0
BITMAP
D8
78
60
60
60
F0
ENDCHAR

STARTCHAR s
ENCODING 115
SWIDTH 460 0
DWIDTH 6 0
BBX 5 6 0 0
BITMAP
78
D8
F0
38
D8
F0
ENDCHAR

STARTCHAR t
ENCODING 116
SWIDTH 340 0
DWIDTH 4 0
BBX 5 8 -1 0
BITMAP
60
60
F8
60
60
60
60
38
ENDCHAR

STARTCHAR u
ENCODING 117
SWIDTH 640 0
DWIDTH 6 0
BBX 7 6 -1 0
BITMAP
EE
6C
6C
6C
6C
3E
ENDCHAR

STARTCHAR v
ENCODING 118
SWIDTH 600 0
DWIDTH 6 0
BBX 7 6 -1 0
BITMAP
EE
6C
6C
38
38
10
ENDCHAR

STARTCHAR w
ENCODING 119
SWIDTH 880 0
DWIDTH 8 0
BBX 9 6 -1 0
BITMAP
EB80
6B00
6B00
3E00
3E00
1400
ENDCHAR

STARTCHAR x
ENCODING 120
SWIDTH 620 0
DWIDTH 6 0
BBX 5 6 0 0
BITMAP
D8
D8
70
70
D8
D8
ENDCHAR

STARTCHAR y
ENCODING 121
SWIDTH 600 0
DWIDTH 6 0
BBX 7 8 -1 -2
BITMAP
EE
6C
68
38
38
10
30
70
ENDCHAR

STARTCHAR z
ENCODING 122
SWIDTH 460 0
DWIDTH 5 0
BBX 4 6 0 0
BITMAP
F0
F0
20
60
D0
F0
ENDCHAR

STARTCHAR braceleft
ENCODING 123
SWIDTH 320 0
DWIDTH 4 0
BBX 3 9 0 -1
BITMAP
20
40
40
40
80
40
40
40
20
ENDCHAR

STARTCHAR bar
ENCODING 124
SWIDTH 660 0
DWIDTH 7 0
BBX 1 8 2 0
BITMAP
80
80
80
80
80
80
80
80
ENDCHAR

STARTCHAR braceright
ENCODING 125
SWIDTH 320 0
DWIDTH 4 0
BBX 3 9 1 -1
BITMAP
80
40
40
40
20
40
40
40
80
ENDCHAR

STARTCHAR asciitilde
ENCODING 126
SWIDTH 660 0
DWIDTH 7 0
BBX 6 2 0 3
BITMAP
64
98
ENDCHAR

STARTCHAR space
ENCODING 160
SWIDTH 300 0
DWIDTH 2 0
BBX 1 1 0 0
BITMAP
00
ENDCHAR

STARTCHAR exclamdown
ENCODING 161
SWIDTH 200 0
DWIDTH 3 0
BBX 1 8 1 -2
BITMAP
80
80
00
80
80
80
80
80
ENDCHAR

STARTCHAR cent
ENCODING 162
SWIDTH 580 0
DWIDTH 6 0
BBX 5 7 0 0
BITMAP
20
78
D8
C0
C8
70
20
ENDCHAR

STARTCHAR sterling
ENCODING 163
SWIDTH 680 0
DWIDTH 7 0
BBX 6 8 0 0
BITMAP
70
F8
C8
60
F0
20
6C
F8
ENDCHAR

STARTCHAR currency
ENCODING 164
SWIDTH 580 0
DWIDTH 7 0
BBX 6 6 0 0
BITMAP
84
78
48
48
78
84
ENDCHAR

STARTCHAR yen
ENCODING 165
SWIDTH 720 0
DWIDTH 7 0
BBX 7 8 0 0
BITMAP
EE
6C
28
7C
10
7C
10
38
ENDCHAR

STARTCHAR brokenbar
ENCODING 166
SWIDTH 660 0
DWIDTH 7 0
BBX 1 8 3 0
BITMAP
80
80
80
00
00
80
80
80
ENDCHAR

STARTCHAR section
ENCODING 167
SWIDTH 460 0
DWIDTH 5 0
BBX 4 10 0 -2
BITMAP
60
D0
C0
60
D0
D0
60
30
B0
60
ENDCHAR

STARTCHAR dieresis
ENCODING 168
SWIDTH 460 0
DWIDTH 5 0
BBX 3 2 1 7
BITMAP
A0
A0
ENDCHAR

STARTCHAR copyright
ENCODING 169
SWIDTH 820 0
DWIDTH 10 0
BBX 8 8 1 0
BITMAP
3C
42
99
A5
A1
9D
42
3C
ENDCHAR

STARTCHAR ordfeminine
ENCODING 170
SWIDTH 420 0
DWIDTH 5 0
BBX 4 6 1 2
BITMAP
50
A0
A0
70
00
F0
ENDCHAR

STARTCHAR guillemotleft
ENCODING 171
SWIDTH 360 0
DWIDTH 5 0
BBX 4 3 0 2
BITMAP
50
A0
50
ENDCHAR

STARTCHAR logicalnot
ENCODING 172
SWIDTH 660 0
DWIDTH 7 0
BBX 6 4 0 1
BITMAP
FC
04
04
04
ENDCHAR

STARTCHAR hyphen
ENCODING 173
SWIDTH 320 0
DWIDTH 3 0
BBX 4 1 0 3
BITMAP
F0
ENDCHAR

STARTCHAR registered
ENCODING 174
SWIDTH 820 0
DWIDTH 10 0
BBX 8 8 1 0
BITMAP
3C
42
B9
A5
B9
A5
42
3C
ENDCHAR

STARTCHAR macron
ENCODING 175
SWIDTH 520 0
DWIDTH 6 0
BBX 4 1 1 7
BITMAP
F0
ENDCHAR

STARTCHAR degree
ENCODING 176
SWIDTH 400 0
DWIDTH 4 0
BBX 3 3 0 5
BITMAP
40
A0
40
ENDCHAR

STARTCHAR plusminus
ENCODING 177
SWIDTH 660 0
DWIDTH 7 0
BBX 5 5 1 1
BITMAP
20
F8
20
00
F8
ENDCHAR

STARTCHAR twosuperior
ENCODING 178
SWIDTH 348 0
DWIDTH 3 0
BBX 3 4 0 4
BITMAP
60
A0
40
E0
ENDCHAR

STARTCHAR threesuperior
ENCODING 179
SWIDTH 348 0
DWIDTH 3 0
BBX 3 4 0 4
BITMAP
E0
40
20
C0
ENDCHAR

STARTCHAR acute
ENCODING 180
SWIDTH 460 0
DWIDTH 5 0
BBX 3 2 1 7
BITMAP
60
C0
ENDCHAR

STARTCHAR mu
ENCODING 181
SWIDTH 640 0
DWIDTH 6 0
BBX 7 8 -1 -2
BITMAP
EE
6C
6C
6C
6C
7E
60
60
ENDCHAR

STARTCHAR paragraph
ENCODING 182
SWIDTH 540 0
DWIDTH 7 0
BBX 6 10 0 -2
BITMAP
7C
E8
E8
E8
68
28
28
28
28
28
ENDCHAR

STARTCHAR periodcentered
ENCODING 183
SWIDTH 300 0
DWIDTH 3 0
BBX 1 2 1 2
BITMAP
80
80
ENDCHAR

STARTCHAR cedilla
ENCODING 184
SWIDTH 360 0
DWIDTH 4 0
BBX 2 2 1 -2
BITMAP
40
C0
ENDCHAR

STARTCHAR onesuperior
ENCODING 185
SWIDTH 348 0
DWIDTH 3 0
BBX 3 4 0 4
BITMAP
C0
40
40
E0
ENDCHAR

STARTCHAR ordmasculine
ENCODING 186
SWIDTH 360 0
DWIDTH 5 0
BBX 3 6 1 2
BITMAP
40
A0
A0
40
00
E0
ENDCHAR

STARTCHAR guillemotright
ENCODING 187
SWIDTH 360 0
DWIDTH 5 0
BBX 4 3 1 2
BITMAP
A0
50
A0
ENDCHAR

STARTCHAR onequarter
ENCODING 188
SWIDTH 870 0
DWIDTH 9 0
BBX 8 8 0 0
BITMAP
C4
44
48
E8
12
16
2F
22
ENDCHAR

STARTCHAR onehalf
ENCODING 189
SWIDTH 870 0
DWIDTH 9 0
BBX 8 8 0 0
BITMAP
C4
44
48
E8
13
15
22
27
ENDCHAR

STARTCHAR threequarters
ENCODING 190
SWIDTH 870 0
DWIDTH 9 0
BBX 8 8 0 0
BITMAP
E4
44
28
C8
12
16
2F
22
ENDCHAR

STARTCHAR questiondown
ENCODING 191
SWIDTH 540 0
DWIDTH 6 0
BBX 5 8 0 -2
BITMAP
20
20
00
20
60
C8
C8
70
ENDCHAR

STARTCHAR Agrave
ENCODING 192
SWIDTH 780 0
DWIDTH 7 0
BBX 7 11 0 0
BITMAP
60
30
00
78
38
28
6C
6C
7C
C6
C6
ENDCHAR

STARTCHAR Aacute
ENCODING 193
SWIDTH 780 0
DWIDTH 7 0
BBX 7 11 0 0
BITMAP
0C
18
00
78
38
28
6C
6C
7C
C6
C6
ENDCHAR

STARTCHAR Acircumflex
ENCODING 194
SWIDTH 780 0
DWIDTH 7 0
BBX 7 11 0 0
BITMAP
18
34
00
78
38
28
6C
6C
7C
C6
C6
ENDCHAR

STARTCHAR Atilde
ENCODING 195
SWIDTH 780 0
DWIDTH 7 0
BBX 7 11 0 0
BITMAP
14
28
00
78
38
28
6C
6C
7C
C6
C6
ENDCHAR

STARTCHAR Adieresis
ENCODING 196
SWIDTH 780 0
DWIDTH 7 0
BBX 7 11 0 0
BITMAP
28
28
00
78
38
28
6C
6C
7C
C6
C6
ENDCHAR

STARTCHAR Aring
ENCODING 197
SWIDTH 780 0
DWIDTH 7 0
BBX 7 11 0 0
BITMAP
10
28
10
78
38
28
6C
6C
7C
C6
C6
ENDCHAR

STARTCHAR AE
ENCODING 198
SWIDTH 980 0
DWIDTH 11 0
BBX 10 8 0 0
BITMAP
1FC0
0E40
1600
1780
3600
3E40
6640
E7C0
ENDCHAR

STARTCHAR Ccedilla
ENCODING 199
SWIDTH 760 0
DWIDTH 7 0
BBX 7 10 0 -2
BITMAP
3A
6E
C6
C0
C0
C6
6C
38
10
30
ENDCHAR

STARTCHAR Egrave
ENCODING 200
SWIDTH 580 0
DWIDTH 7 0
BBX 6 11 0 0
BITMAP
60
30
00
FC
64
60
78
60
64
64
FC
ENDCHAR

STARTCHAR Eacute
ENCODING 201
SWIDTH 580 0
DWIDTH 7 0
BBX 6 11 0 0
BITMAP
18
30
00
FC
64
60
78
60
64
64
FC
ENDCHAR

STARTCHAR Ecircumflex
ENCODING 202
SWIDTH 580 0
DWIDTH 7 0
BBX 6 11 0 0
BITMAP
30
68
00
FC
64
60
78
60
64
64
FC
ENDCHAR

STARTCHAR Edieresis
ENCODING 203
SWIDTH 580 0
DWIDTH 7 0
BBX 6 11 0 0
BITMAP
28
28
00
FC
64
60
78
60
64
64
FC
ENDCHAR

STARTCHAR Igrave
ENCODING 204
SWIDTH 340 0
DWIDTH 4 0
BBX 4 11 0 0
BITMAP
C0
60
00
F0
60
60
60
60
60
60
F0
ENDCHAR

STARTCHAR Iacute
ENCODING 205
SWIDTH 340 0
DWIDTH 4 0
BBX 4 11 0 0
BITMAP
30
60
00
F0
60
60
60
60
60
60
F0
ENDCHAR

STARTCHAR Icircumflex
ENCODING 206
SWIDTH 340 0
DWIDTH 4 0
BBX 4 11 0 0
BITMAP
60
D0
00
F0
60
60
60
60
60
60
F0
ENDCHAR

STARTCHAR Idieresis
ENCODING 207
SWIDTH 340 0
DWIDTH 4 0
BBX 4 11 0 0
BITMAP
90
90
00
F0
60
60
60
60
60
60
F0
ENDCHAR

STARTCHAR Eth
ENCODING 208
SWIDTH 740 0
DWIDTH 8 0
BBX 7 8 0 0
BITMAP
F8
6C
66
F6
66
66
6C
F8
ENDCHAR

STARTCHAR Ntilde
ENCODING 209
SWIDTH 800 0
DWIDTH 8 0
BBX 8 11 0 0
BITMAP
14
28
00
E7
66
76
76
6E
6E
66
E6
ENDCHAR

STARTCHAR Ograve
ENCODING 210
SWIDTH 780 0
DWIDTH 9 0
BBX 8 11 0 0
BITMAP
30
18
00
3C
66
C3
C3
C3
C3
66
3C
ENDCHAR

STARTCHAR Oacute
ENCODING 211
SWIDTH 780 0
DWIDTH 9 0
BBX 8 11 0 0
BITMAP
0C
18
00
3C
66
C3
C3
C3
C3
66
3C
ENDCHAR

STARTCHAR Ocircumflex
ENCODING 212
SWIDTH 780 0
DWIDTH 9 0
BBX 8 11 0 0
BITMAP
18
34
00
3C
66
C3
C3
C3
C3
66
3C
ENDCHAR

STARTCHAR Otilde
ENCODING 213
SWIDTH 780 0
DWIDTH 9 0
BBX 8 11 0 0
BITMAP
14
28
00
3C
66
C3
C3
C3
C3
66
3C
ENDCHAR

STARTCHAR Odieresis
ENCODING 214
SWIDTH 780 0
DWIDTH 9 0
BBX 8 11 0 0
BITMAP
24
24
00
3C
66
C3
C3
C3
C3
66
3C
ENDCHAR

STARTCHAR multiply
ENCODING 215
SWIDTH 660 0
DWIDTH 7 0
BBX 6 5 0 1
BITMAP
CC
78
30
78
CC
ENDCHAR

STARTCHAR Oslash
ENCODING 216
SWIDTH 780 0
DWIDTH 8 0
BBX 8 10 0 -1
BITMAP
01
3F
66
CB
CB
D3
D3
66
FC
80
ENDCHAR

STARTCHAR Ugrave
ENCODING 217
SWIDTH 700 0
DWIDTH 7 0
BBX 8 11 -1 0
BITMAP
30
18
00
EF
66
66
66
66
66
66
3C
ENDCHAR

STARTCHAR Uacute
ENCODING 218
SWIDTH 700 0
DWIDTH 7 0
BBX 8 11 -1 0
BITMAP
0C
18
00
EF
66
66
66
66
66
66
3C
ENDCHAR

STARTCHAR Ucircumflex
ENCODING 219
SWIDTH 700 0
DWIDTH 7 0
BBX 8 11 -1 0
BITMAP
18
34
00
EF
66
66
66
66
66
66
3C
ENDCHAR

STARTCHAR Udieresis
ENCODING 220
SWIDTH 700 0
DWIDTH 7 0
BBX 8 11 -1 0
BITMAP
24
24
00
EF
66
66
66
66
66
66
3C
ENDCHAR

STARTCHAR Yacute
ENCODING 221
SWIDTH 680 0
DWIDTH 6 0
BBX 8 11 -1 0
BITMAP
0C
18
00
E7
66
34
3C
18
18
18
3C
ENDCHAR

STARTCHAR Thorn
ENCODING 222
SWIDTH 600 0
DWIDTH 7 0
BBX 6 8 0 0
BITMAP
E0
78
6C
6C
6C
78
60
F0
ENDCHAR

STARTCHAR germandbls
ENCODING 223
SWIDTH 600 0
DWIDTH 6 0
BBX 6 8 -1 0
BITMAP
38
6C
6C
78
6C
6C
6C
D8
ENDCHAR

STARTCHAR agrave
ENCODING 224
SWIDTH 660 0
DWIDTH 6 0
BBX 6 9 0 0
BITMAP
60
30
00
78
D8
D8
D8
D8
6C
ENDCHAR

STARTCHAR aacute
ENCODING 225
SWIDTH 660 0
DWIDTH 6 0
BBX 6 9 0 0
BITMAP
30
60
00
78
D8
D8
D8
D8
6C
ENDCHAR

STARTCHAR acircumflex
ENCODING 226
SWIDTH 660 0
DWIDTH 6 0
BBX 6 9 0 0
BITMAP
30
68
00
78
D8
D8
D8
D8
6C
ENDCHAR

STARTCHAR atilde
ENCODING 227
SWIDTH 660 0
DWIDTH 6 0
BBX 6 9 0 0
BITMAP
28
50
00
78
D8
D8
D8
D8
6C
ENDCHAR

STARTCHAR adieresis
ENCODING 228
SWIDTH 660 0
DWIDTH 6 0
BBX 6 9 0 0
BITMAP
50
50
00
78
D8
D8
D8
D8
6C
ENDCHAR

STARTCHAR aring
ENCODING 229
SWIDTH 660 0
DWIDTH 6 0
BBX 6 9 0 0
BITMAP
20
50
20
78
D8
D8
D8
D8
6C
ENDCHAR

STARTCHAR ae
ENCODING 230
SWIDTH 1040 0
DWIDTH 10 0
BBX 9 6 0 0
BITMAP
6B00
DD80
DF80
DC00
DF80
6B00
ENDCHAR

STARTCHAR ccedilla
ENCODING 231
SWIDTH 580 0
DWIDTH 6 0
BBX 5 8 0 -2
BITMAP
78
D8
C0
C0
D8
70
20
60
ENDCHAR

STARTCHAR egrave
ENCODING 232
SWIDTH 580 0
DWIDTH 6 0
BBX 5 9 0 0
BITMAP
60
30
00
70
D8
F8
C0
D8
70
ENDCHAR

STARTCHAR eacute
ENCODING 233
SWIDTH 580 0
DWIDTH 6 0
BBX 5 9 0 0
BITMAP
30
60
00
70
D8
F8
C0
D8
70
ENDCHAR

STARTCHAR ecircumflex
ENCODING 234
SWIDTH 580 0
DWIDTH 6 0
BBX 5 9 0 0
BITMAP
60
D0
00
70
D8
F8
C0
D8
70
ENDCHAR

STARTCHAR edieresis
ENCODING 235
SWIDTH 580 0
DWIDTH 6 0
BBX 5 9 0 0
BITMAP
50
50
00
70
D8
F8
C0
D8
70
ENDCHAR

STARTCHAR igrave
ENCODING 236
SWIDTH 300 0
DWIDTH 5 0
BBX 4 9 0 0
BITMAP
C0
60
00
E0
60
60
60
60
F0
ENDCHAR

STARTCHAR iacute
ENCODING 237
SWIDTH 300 0
DWIDTH 5 0
BBX 4 9 0 0
BITMAP
60
C0
00
E0
60
60
60
60
F0
ENDCHAR

STARTCHAR icircumflex
ENCODING 238
SWIDTH 300 0
DWIDTH 5 0
BBX 4 9 0 0
BITMAP
60
D0
00
E0
60
60
60
60
F0
ENDCHAR

STARTCHAR idieresis
ENCODING 239
SWIDTH 300 0
DWIDTH 5 0
BBX 4 9 0 0
BITMAP
A0
A0
00
E0
60
60
60
60
F0
ENDCHAR

STARTCHAR eth
ENCODING 240
SWIDTH 580 0
DWIDTH 6 0
BBX 5 9 0 0
BITMAP
D0
60
B0
78
D8
D8
D8
D8
70
ENDCHAR

STARTCHAR ntilde
ENCODING 241
SWIDTH 640 0
DWIDTH 6 0
BBX 7 9 -1 0
BITMAP
28
50
00
D8
7C
6C
6C
6C
6E
ENDCHAR

STARTCHAR ograve
ENCODING 242
SWIDTH 580 0
DWIDTH 6 0
BBX 5 9 0 0
BITMAP
60
30
00
70
D8
D8
D8
D8
70
ENDCHAR

STARTCHAR oacute
ENCODING 243
SWIDTH 580 0
DWIDTH 6 0
BBX 5 9 0 0
BITMAP
30
60
00
70
D8
D8
D8
D8
70
ENDCHAR

STARTCHAR ocircumflex
ENCODING 244
SWIDTH 580 0
DWIDTH 6 0
BBX 5 9 0 0
BITMAP
60
D0
00
70
D8
D8
D8
D8
70
ENDCHAR

STARTCHAR otilde
ENCODING 245
SWIDTH 580 0
DWIDTH 6 0
BBX 5 9 0 0
BITMAP
50
A0
00
70
D8
D8
D8
D8
70
ENDCHAR

STARTCHAR odieresis
ENCODING 246
SWIDTH 580 0
DWIDTH 6 0
BBX 5 9 0 0
BITMAP
50
50
00
70
D8
D8
D8
D8
70
ENDCHAR

STARTCHAR divide
ENCODING 247
SWIDTH 660 0
DWIDTH 7 0
BBX 6 5 0 1
BITMAP
30
00
FC
00
30
ENDCHAR

STARTCHAR oslash
ENCODING 248
SWIDTH 600 0
DWIDTH 6 0
BBX 5 8 0 -1
BITMAP
08
78
D8
F8
D8
D8
F0
80
ENDCHAR

STARTCHAR ugrave
ENCODING 249
SWIDTH 640 0
DWIDTH 6 0
BBX 7 9 -1 0
BITMAP
30
18
00
EE
6C
6C
6C
6C
3E
ENDCHAR

STARTCHAR uacute
ENCODING 250
SWIDTH 640 0
DWIDTH 6 0
BBX 7 9 -1 0
BITMAP
18
30
00
EE
6C
6C
6C
6C
3E
ENDCHAR

STARTCHAR ucircumflex
ENCODING 251
SWIDTH 640 0
DWIDTH 6 0
BBX 7 9 -1 0
BITMAP
30
68
00
EE
6C
6C
6C
6C
3E
ENDCHAR

STARTCHAR udieresis
ENCODING 252
SWIDTH 640 0
DWIDTH 6 0
BBX 7 9 -1 0
BITMAP
28
28
00
EE
6C
6C
6C
6C
3E
ENDCHAR

STARTCHAR yacute
ENCODING 253
SWIDTH 600 0
DWIDTH 6 0
BBX 7 11 -1 -2
BITMAP
18
30
00
EE
6C
68
38
38
10
30
70
ENDCHAR

STARTCHAR thorn
ENCODING 254
SWIDTH 660 0
DWIDTH 6 0
BBX 6 10 -1 -2
BITMAP
E0
60
78
6C
6C
6C
6C
78
60
F0
ENDCHAR

STARTCHAR ydieresis
ENCODING 255
SWIDTH 600 0
DWIDTH 6 0
BBX 7 11 -1 -2
BITMAP
28
28
00
EE
6C
68
38
38
10
30
70
ENDCHAR
ENDFONT
